#!OML:ASF I:\Actors\actors\Patient Classification 1\Patient 1\Session 1\Subject1.ASF
:FULLY-SPECIFIED
:DEGREES
481
root 0.840451 17.7276 8.35718 34.6104 4.06985 -9.84851
lowerback 16.9217 -0.402096 8.58507
upperback -1.02182 1.6711 4.31356
thorax -10.5936 0.448025 -0.553267
lowerneck -12.6685 -0.452986 2.27906
upperneck -8.43132 -0.760381 4.14098
head -0.541611 -0.439982 0.880648
rclavicle 1.55052e-014 6.98728e-014
rhumerus 88.6159 3.14317 -70.0078
rradius 20.3048
rwrist 65.1916
rhand -15.5049 -33.4038
rfingers 7.12502
rthumb 10.6777 -63.1125
lclavicle 1.55052e-014 6.98728e-014
lhumerus 88.9522 -2.92327 107.159
lradius 11.4208
lwrist -81.9287
lhand -51.9638 -40.7293
lfingers 7.12502
lthumb -24.4728 -12.2728
rfemur -36.8162 30.9063 7.45425
rtibia -3.78973
rfoot -9.20458 -36.1028
rtoes 19.2513
lfemur -39.7899 -48.7264 29.9701
ltibia -8.42742
lfoot -55.3568 51.0727
ltoes 45.1961
482
root 0.842145 17.7293 8.34722 34.565 4.10222 -9.76912
lowerback 17.0005 -0.404086 8.53192
upperback -1.02991 1.66892 4.3178
thorax -10.6496 0.448174 -0.518309
lowerneck -12.6302 -0.484077 2.28173
upperneck -8.49692 -0.800085 4.08737
head -0.56816 -0.462269 0.862487
rclavicle 5.96354e-015 -1.14301e-014
rhumerus 88.4304 3.02765 -68.9862
rradius 20.5532
rwrist 63.958
rhand -14.762 -33.8674
rfingers 7.12502
rthumb 11.3942 -63.5378
lclavicle 5.96354e-015 -1.14301e-014
lhumerus 88.8594 -2.9673 107.568
lradius 11.4078
lwrist -82.1294
lhand -51.7908 -40.9105
lfingers 7.12502
lthumb -24.307 -12.4316
rfemur -36.7594 30.8162 7.4122
rtibia -3.82021
rfoot -9.10457 -36.0899
rtoes 19.2319
lfemur -39.9093 -48.7865 29.9576
ltibia -8.37083
lfoot -55.4696 50.9452
ltoes 45.3598
483
root 0.842243 17.73 8.33637 34.5179 4.08679 -9.84733
lowerback 17.0623 -0.354022 8.5775
upperback -1.01426 1.75192 4.32991
thorax -10.6611 0.48483 -0.552062
lowerneck -12.6136 -0.518387 2.28487
upperneck -8.60344 -0.841741 4.07486
head -0.603933 -0.48605 0.857242
rclavicle 2.68359e-015 5.1684e-014
rhumerus 88.2516 2.92875 -69.3689
rradius 20.4374
rwrist 64.6858
rhand -14.7246 -33.8028
rfingers 7.12502
rthumb 11.4304 -63.4712
lclavicle 2.68359e-015 5.1684e-014
lhumerus 88.7504 -3.05791 107.743
lradius 11.4546
lwrist -81.9767
lhand -51.2929 -40.9653
lfingers 7.12502
lthumb -23.8296 -12.4233
rfemur -36.7879 30.8601 7.46574
rtibia -3.78133
rfoot -8.89795 -36.0844
rtoes 19.0415
lfemur -39.829 -48.7448 29.9538
ltibia -8.38411
lfoot -55.4942 50.8784
ltoes 45.4214
484
root 0.842968 17.7289 8.32455 34.4906 4.07157 -9.95363
lowerback 17.0811 -0.302485 8.63097
upperback -1.01331 1.8368 4.36315
thorax -10.665 0.522653 -0.567077
lowerneck -12.6417 -0.538248 2.30312
upperneck -8.6667 -0.870572 4.03146
head -0.619572 -0.502381 0.840007
rclavicle -2.98177e-016 -1.72943e-014
rhumerus 88.0647 2.87097 -69.9832
rradius 20.246
rwrist 65.6143
rhand -15.1726 -33.361
rfingers 7.12502
rthumb 10.9983 -63.0528
lclavicle -2.98177e-016 -1.72943e-014
lhumerus 88.6056 -3.05078 106.948
lradius 11.551
lwrist -81.035
lhand -51.0816 -40.9418
lfingers 7.12502
lthumb -23.6268 -12.3735
rfemur -36.8558 30.9058 7.51897
rtibia -3.73595
rfoot -8.86163 -36.0514
rtoes 19.2465
lfemur -39.7487 -48.6638 29.9886
ltibia -8.40782
lfoot -55.3349 50.9806
ltoes 45.282
485
root 0.845421 17.7284 8.31147 34.4737 4.05795 -9.9581
lowerback 17.1042 -0.303602 8.61424
upperback -1.0729 1.84098 4.3663
thorax -10.746 0.5219 -0.55423
lowerneck -12.5245 -0.502 2.41212
upperneck -8.72056 -0.831889 3.93457
head -0.656495 -0.488827 0.793474
rclavicle -5.1684e-015 -5.88403e-014
rhumerus 87.8101 2.83432 -69.3257
rradius 20.2768
rwrist 64.5594
rhand -15.4759 -34.4855
rfingers 7.12502
rthumb 10.7057 -64.1928
lclavicle -5.1684e-015 -5.88403e-014
lhumerus 88.3895 -2.89357 105.687
lradius 11.6366
lwrist -79.8086
lhand -51.005 -40.5726
lfingers 7.12502
lthumb -23.5534 -11.9948
rfemur -36.9199 30.8711 7.46686
rtibia -3.69892
rfoot -8.95417 -36.0341
rtoes 19.5392
lfemur -39.7823 -48.6179 29.9949
ltibia -8.40123
lfoot -55.1173 51.1106
ltoes 45.1402
486
root 0.845577 17.7295 8.2969 34.4503 4.03814 -9.96853
lowerback 17.1571 -0.31903 8.58092
upperback -1.17272 1.82671 4.33508
thorax -10.8904 0.50943 -0.56451
lowerneck -12.2676 -0.472086 2.6006
upperneck -8.76715 -0.803682 3.88464
head -0.712901 -0.484072 0.74855
rclavicle 6.06293e-015 3.25013e-014
rhumerus 87.5008 2.73383 -67.7673
rradius 20.4533
rwrist 62.1631
rhand -14.7168 -34.2001
rfingers 7.12502
rthumb 11.4379 -63.8681
lclavicle 6.06293e-015 3.25013e-014
lhumerus 88.1062 -2.67886 104.123
lradius 11.7441
lwrist -78.3704
lhand -50.6399 -39.7644
lfingers 7.12502
lthumb -23.2031 -11.1421
rfemur -36.9979 30.8642 7.43679
rtibia -3.64496
rfoot -8.87686 -36.0752
rtoes 19.4787
lfemur -39.8281 -48.5496 30.0182
ltibia -8.383
lfoot -54.9693 51.1877
ltoes 45.0405
487
root 0.84326 17.7304 8.28152 34.4136 4.05713 -10.0253
lowerback 17.2005 -0.313743 8.61845
upperback -1.19731 1.84666 4.31084
thorax -10.9401 0.513576 -0.616981
lowerneck -12.4754 -0.520948 2.61564
upperneck -8.59723 -0.881644 4.02123
head -0.626048 -0.51709 0.784963
rclavicle -5.36719e-015 -5.06901e-015
rhumerus 87.2032 2.87016 -69.4671
rradius 20.2596
rwrist 63.0846
rhand -14.6169 -33.7888
rfingers 7.12502
rthumb 11.5342 -63.4514
lclavicle -5.36719e-015 -5.06901e-015
lhumerus 87.9079 -2.58552 102.711
lradius 11.8481
lwrist -77.0731
lhand -50.1854 -39.0476
lfingers 7.12502
lthumb -22.767 -10.3711
rfemur -37.0385 30.8865 7.5121
rtibia -3.62152
rfoot -8.66358 -36.1233
rtoes 19.3137
lfemur -39.8806 -48.4622 30.1333
ltibia -8.36933
lfoot -54.8989 51.1998
ltoes 45.0546
